<svg xmlns="http://www.w3.org/2000/svg" width="70" height="72" viewBox="0 0 70 72" fill="none">
<path fill-rule="evenodd" clip-rule="evenodd" d="M29.5567 61.4599C29.4191 60.7166 28.7368 60.1999 27.9798 60.2522C19.4303 60.8423 11.9743 60.0941 6.99387 59.065C6.31878 58.9255 5.84809 58.3248 5.85371 57.638L5.97303 43.0555C5.9791 42.3128 5.42743 41.6843 4.69024 41.5731C3.84411 41.4454 3.00114 41.3002 2.16186 41.1374C1.36426 40.9827 0.861751 40.2003 1.03371 39.4092L5.66406 18.1074C5.83685 17.3125 6.624 16.8116 7.42812 16.9526C20.1745 19.1875 35.9674 14.8073 48.3257 3.40469C48.8601 2.91165 49.6745 2.86034 50.2545 3.29913L67.8838 16.6349C68.4649 17.0744 68.6379 17.8721 68.271 18.5004C66.258 21.9474 63.194 26.2565 59.1115 30.7924C58.5633 31.4015 58.6038 32.3397 59.2128 32.8885L69.5162 42.1715C70.0396 42.643 70.1571 43.4176 69.7762 44.0094C67.0853 48.1894 62.6383 53.6485 56.8304 58.5985C50.8349 63.7084 42.6777 68.8789 32.8083 70.9688C32.0147 71.1369 31.2493 70.6074 31.1022 69.8126L29.5567 61.4599Z" fill="#00BCD4"/>
<g filter="url(#filter0_dd_2308_23907)">
<path d="M25.4439 33.9618C26.0976 32.759 26.8852 31.634 27.7919 30.6083C32.4676 25.3097 39.4865 23.4495 45.3576 25.3962C48.0197 30.9795 47.0472 38.1753 42.3714 43.4739C41.4433 44.5257 40.423 45.4426 39.3361 46.2209L39.7892 49.9476C39.8087 50.108 39.7717 50.2702 39.6844 50.4062C39.5972 50.5422 39.4652 50.6436 39.3113 50.6928L32.9875 52.6995C32.8869 52.7313 32.7804 52.7398 32.6761 52.7243C32.5718 52.7089 32.4723 52.6698 32.3853 52.6102C32.2983 52.5506 32.2261 52.4719 32.174 52.3802C32.1219 52.2885 32.0915 52.1861 32.0849 52.0808L31.8089 47.6622C31.786 47.2945 31.618 46.9511 31.3419 46.7073L25.9558 41.9544C25.6796 41.7107 25.3179 41.5868 24.9503 41.6098L20.5316 41.8858C20.4264 41.8923 20.321 41.8748 20.2235 41.8345C20.126 41.7943 20.039 41.7324 19.969 41.6535C19.899 41.5746 19.8479 41.4808 19.8196 41.3792C19.7912 41.2776 19.7864 41.1709 19.8055 41.0671L21.0089 34.5438C21.0384 34.3846 21.1226 34.2407 21.2469 34.137C21.3712 34.0333 21.5279 33.9763 21.6898 33.9758L25.4439 33.9618V33.9618ZM35.0817 37.0411C35.6341 37.5286 36.3575 37.7766 37.0927 37.7307C37.828 37.6848 38.5149 37.3486 39.0024 36.7963C39.4899 36.2439 39.7379 35.5205 39.692 34.7852C39.6461 34.0499 39.3099 33.363 38.7576 32.8755C38.2052 32.3881 37.4818 32.14 36.7465 32.1859C36.0112 32.2319 35.3243 32.568 34.8368 33.1204C34.3494 33.6728 34.1013 34.3962 34.1472 35.1314C34.1932 35.8667 34.5293 36.5536 35.0817 37.0411Z" fill="url(#paint0_linear_2308_23907)"/>
</g>
<defs>
<filter id="filter0_dd_2308_23907" x="11.8211" y="23.4264" width="42.9681" height="44.0355" filterUnits="userSpaceOnUse" color-interpolation-filters="sRGB">
<feFlood flood-opacity="0" result="BackgroundImageFix"/>
<feColorMatrix in="SourceAlpha" type="matrix" values="0 0 0 0 0 0 0 0 0 0 0 0 0 0 0 0 0 0 127 0" result="hardAlpha"/>
<feOffset dy="2.67158"/>
<feGaussianBlur stdDeviation="1.57623"/>
<feColorMatrix type="matrix" values="0 0 0 0 0.301961 0 0 0 0 0.2 0 0 0 0 0.0980392 0 0 0 0.0899053 0"/>
<feBlend mode="normal" in2="BackgroundImageFix" result="effect1_dropShadow_2308_23907"/>
<feColorMatrix in="SourceAlpha" type="matrix" values="0 0 0 0 0 0 0 0 0 0 0 0 0 0 0 0 0 0 127 0" result="hardAlpha"/>
<feOffset dy="6.75663"/>
<feGaussianBlur stdDeviation="3.98641"/>
<feColorMatrix type="matrix" values="0 0 0 0 0.301961 0 0 0 0 0.2 0 0 0 0 0.0980392 0 0 0 0.128676 0"/>
<feBlend mode="normal" in2="effect1_dropShadow_2308_23907" result="effect2_dropShadow_2308_23907"/>
<feBlend mode="normal" in="SourceGraphic" in2="effect2_dropShadow_2308_23907" result="shape"/>
</filter>
<linearGradient id="paint0_linear_2308_23907" x1="45.3574" y1="25.396" x2="26.1735" y2="47.1355" gradientUnits="userSpaceOnUse">
<stop stop-color="white"/>
<stop offset="1" stop-color="#FFFCF5"/>
</linearGradient>
</defs>
</svg>