<svg xmlns="http://www.w3.org/2000/svg" version="1.1" xmlns:xlink="http://www.w3.org/1999/xlink" xmlns:svgjs="http://svgjs.dev/svgjs" width="1500" height="363" viewBox="0 0 1500 363"><g transform="matrix(1,0,0,1,-0.9090909090909918,-1.266464663761866)"><svg viewBox="0 0 396 96" data-background-color="#ffffff" preserveAspectRatio="xMidYMid meet" height="363" width="1500" xmlns="http://www.w3.org/2000/svg" xmlns:xlink="http://www.w3.org/1999/xlink"><g id="tight-bounds" transform="matrix(1,0,0,1,0.2400000000000091,0.3349328036395036)"><svg viewBox="0 0 395.52 95.33013439272102" height="95.33013439272102" width="395.52"><g><svg viewBox="0 0 538.619965091222 129.82077684756496" height="95.33013439272102" width="395.52"><g transform="matrix(1,0,0,1,143.09996509122197,36.78557217042126)"><svg viewBox="0 0 395.52 56.249632506722435" height="56.249632506722435" width="395.52"><g id="textblocktransform"><svg viewBox="0 0 395.52 56.249632506722435" height="56.249632506722435" width="395.52" id="textblock"><g><svg viewBox="0 0 395.52 56.249632506722435" height="56.249632506722435" width="395.52"><g transform="matrix(1,0,0,1,0,0)"><svg width="395.52" viewBox="1.93 -34.35 251 35.7" height="56.249632506722435" data-palette-color="#2c3e50"><path d="M31.6-5.35L31.6 1.35 17.75 0.8Q9.33 0.45 5.63-2.98 1.93-6.4 1.93-13.1L1.93-13.1 1.93-18.9Q1.93-25.48 5.44-29.06 8.95-32.65 15.88-32.65L15.88-32.65Q20.48-32.65 23.58-31.05 26.68-29.45 28.24-26.39 29.8-23.33 29.8-18.93L29.8-18.93 29.8-14.6Q29.8-12.5 29.31-10.89 28.83-9.28 27.91-8.14 27-7 25.7-6.31 24.4-5.63 22.78-5.35L22.78-5.35 22.78-5.05 31.6-5.35ZM16.57-5.75L16.57-5.75 17.4-5.73Q18.38-6 19.18-6.6 19.98-7.2 20.58-8.1 21.18-9 21.51-10.26 21.85-11.53 21.85-13.13L21.85-13.13 21.85-19.23Q21.85-22.6 20.38-24.4 18.9-26.2 15.88-26.2L15.88-26.2Q12.85-26.2 11.38-24.4 9.9-22.6 9.9-19.23L9.9-19.23 9.9-12.78Q9.9-9.4 11.7-7.63 13.5-5.85 16.57-5.75ZM34.07-24.58L41.72-24.58 41.72-10.13Q41.72-8.78 42.07-7.79 42.42-6.8 43.25-6.26 44.07-5.73 45.5-5.73L45.5-5.73Q46.7-5.73 47.59-6.15 48.47-6.58 49.09-7.3 49.7-8.03 50-8.9L50-8.9 51.17-5.33 49.87-5.33Q49.47-3.68 48.56-2.33 47.65-0.98 46.06-0.2 44.47 0.58 42 0.58L42 0.58Q39.27 0.58 37.51-0.49 35.75-1.55 34.91-3.65 34.07-5.75 34.07-8.9L34.07-8.9 34.07-24.58ZM49.87-24.58L57.52-24.58 57.52 0 49.92 0 50.17-6.15 49.87-6.85 49.87-24.58ZM70.3 0L62.65 0 62.65-24.58 70.3-24.58 70.3 0ZM66.47-26.9L66.47-26.9Q64.32-26.9 63.35-27.89 62.37-28.88 62.37-30.55L62.37-30.55 62.37-30.73Q62.37-32.4 63.35-33.38 64.32-34.35 66.47-34.35L66.47-34.35Q68.57-34.35 69.56-33.38 70.55-32.4 70.55-30.73L70.55-30.73 70.55-30.55Q70.55-28.85 69.56-27.88 68.57-26.9 66.47-26.9ZM85.99 0.65L85.99 0.65Q80.14 0.65 77.32-2.43 74.49-5.5 74.49-11.08L74.49-11.08 74.49-13.63Q74.49-19.1 77.32-22.18 80.14-25.25 85.97-25.25L85.97-25.25Q87.47-25.25 88.77-25.04 90.07-24.83 91.17-24.45 92.27-24.08 93.09-23.65L93.09-23.65 93.72-17.32Q92.49-18.03 91.02-18.49 89.54-18.95 87.69-18.95L87.69-18.95Q84.79-18.95 83.49-17.55 82.19-16.15 82.19-13.5L82.19-13.5 82.19-11.38Q82.19-8.68 83.57-7.23 84.94-5.78 87.87-5.78L87.87-5.78Q89.69-5.78 91.16-6.21 92.62-6.65 93.94-7.35L93.94-7.35 93.34-1Q92.04-0.3 90.14 0.18 88.24 0.65 85.99 0.65ZM122.32 0L113.39 0 106.14-10.6 104.14-10.6 104.14-15.1 106.14-15.1 113.19-24.58 121.97-24.58 112.62-12.38 112.62-13.83 122.32 0ZM105.34 0L97.74 0 97.74-33.02 105.34-33.02 105.34 0ZM135.21-5L135.81-5 140.29-24.58 148.14-24.58 141.61 0 129.36 0 122.79-24.58 130.69-24.58 135.21-5ZM171.91 0L164.39 0 164.61-6.15 164.44-6.53 164.44-14.2 164.39-15.2Q164.39-17.25 163.19-18.23 161.99-19.2 159.16-19.2L159.16-19.2Q156.69-19.2 154.46-18.57 152.24-17.95 150.26-17.15L150.26-17.15 150.91-23.08Q152.09-23.63 153.55-24.11 155.01-24.6 156.79-24.9 158.56-25.2 160.59-25.2L160.59-25.2Q163.81-25.2 165.99-24.45 168.16-23.7 169.46-22.33 170.76-20.95 171.34-19.04 171.91-17.13 171.91-14.83L171.91-14.83 171.91 0ZM156.56 0.58L156.56 0.58Q152.89 0.58 150.99-1.28 149.09-3.13 149.09-6.55L149.09-6.55 149.09-7.23Q149.09-10.85 151.32-12.59 153.56-14.33 158.44-14.95L158.44-14.95 165.04-15.83 165.49-11.23 159.64-10.38Q157.86-10.15 157.14-9.55 156.41-8.95 156.41-7.78L156.41-7.78 156.41-7.6Q156.41-6.48 157.14-5.81 157.86-5.15 159.46-5.15L159.46-5.15Q160.86-5.15 161.87-5.58 162.89-6 163.54-6.69 164.19-7.38 164.51-8.22L164.51-8.22 165.59-5.13 164.34-5.13Q163.94-3.53 163.1-2.23 162.26-0.93 160.69-0.18 159.11 0.58 156.56 0.58ZM184.33 0L176.68 0 176.68-33.02 184.33-33.02 184.33 0ZM197.16 0L189.51 0 189.51-24.58 197.16-24.58 197.16 0ZM193.33-26.9L193.33-26.9Q191.18-26.9 190.21-27.89 189.23-28.88 189.23-30.55L189.23-30.55 189.23-30.73Q189.23-32.4 190.21-33.38 191.18-34.35 193.33-34.35L193.33-34.35Q195.43-34.35 196.42-33.38 197.41-32.4 197.41-30.73L197.41-30.73 197.41-30.55Q197.41-28.85 196.42-27.88 195.43-26.9 193.33-26.9ZM210.18 0.58L210.18 0.58Q205.88 0.58 203.67-2.25 201.45-5.08 201.45-10.65L201.45-10.65 201.45-13.68Q201.45-19.35 203.68-22.25 205.9-25.15 210.4-25.15L210.4-25.15Q212.6-25.15 214.08-24.43 215.55-23.7 216.44-22.38 217.33-21.05 217.68-19.25L217.68-19.25 219.75-19.25 217.95-14.3Q217.9-15.83 217.35-16.88 216.8-17.93 215.82-18.49 214.83-19.05 213.43-19.05L213.43-19.05Q211.33-19.05 210.23-17.82 209.13-16.6 209.13-14.15L209.13-14.15 209.13-10.63Q209.13-8.2 210.24-6.96 211.35-5.73 213.53-5.73L213.53-5.73Q214.68-5.73 215.59-6.15 216.5-6.58 217.14-7.33 217.78-8.08 218.08-9.03L218.08-9.03 219.95-5.33 217.8-5.33Q217.43-3.68 216.55-2.33 215.68-0.98 214.13-0.2 212.58 0.58 210.18 0.58ZM225.45 0L217.85 0 218.08-6.23 217.95-7.53 217.95-17.48 217.95-18.55 217.85-25.68 217.85-33.02 225.45-33.02 225.45 0ZM242.75 0.63L242.75 0.63Q236.05 0.63 232.85-2.36 229.65-5.35 229.65-11.08L229.65-11.08 229.65-13.63Q229.65-19.28 232.65-22.29 235.65-25.3 241.38-25.3L241.38-25.3Q245.23-25.3 247.79-23.99 250.35-22.68 251.64-20.25 252.93-17.82 252.93-14.43L252.93-14.43 252.93-13.6Q252.93-12.65 252.84-11.66 252.75-10.68 252.6-9.83L252.6-9.83 245.7-9.83Q245.8-11.28 245.83-12.56 245.85-13.85 245.85-14.9L245.85-14.9Q245.85-16.43 245.38-17.46 244.9-18.5 243.91-19.05 242.93-19.6 241.38-19.6L241.38-19.6Q239.08-19.6 238.01-18.36 236.95-17.13 236.95-14.85L236.95-14.85 236.95-12.6 237-11.78 237-10.03Q237-9.08 237.31-8.22 237.63-7.38 238.41-6.74 239.2-6.1 240.59-5.74 241.98-5.38 244.13-5.38L244.13-5.38Q246.4-5.38 248.5-5.81 250.6-6.25 252.53-7L252.53-7 251.9-1.25Q250.2-0.38 247.88 0.13 245.55 0.63 242.75 0.63ZM251.05-9.83L233.7-9.83 233.7-14.55 251.05-14.55 251.05-9.83Z" opacity="1" transform="matrix(1,0,0,1,0,0)" fill="#2c3e50" class="wordmark-text-0" data-fill-palette-color="primary" id="text-0"></path></svg></g></svg></g></svg></g></svg></g><g><svg viewBox="0 0 129.82077684756496 129.82077684756496" height="129.82077684756496" width="129.82077684756496"><g><svg xmlns="http://www.w3.org/2000/svg" xmlns:xlink="http://www.w3.org/1999/xlink" version="1.1" x="0" y="0" viewBox="5 5 90 90" enable-background="new 0 0 100 100" xml:space="preserve" height="129.82077684756496" width="129.82077684756496" class="icon-icon-0" data-fill-palette-color="accent" id="icon-0"><path fill="#e67e22" d="M50 5C25.2 5 5 25.2 5 50S25.2 95 50 95 95 74.8 95 50 74.8 5 50 5M50 86C30.1 86 14 69.9 14 50S30.1 14 50 14 86 30.1 86 50 69.9 86 50 86" data-fill-palette-color="accent"></path><polygon fill="#e67e22" points="45.5,57.1 30.7,42.3 24.3,48.7 45.5,69.9 75.7,39.7 69.3,33.3 " data-fill-palette-color="accent"></polygon></svg></g></svg></g></svg></g><defs></defs></svg><rect width="395.52" height="95.33013439272102" fill="none" stroke="none" visibility="hidden"></rect></g></svg></g></svg>