<svg width="308" height="308" viewBox="0 0 308 308" fill="none" xmlns="http://www.w3.org/2000/svg">
<line x1="16.5" y1="2.18557e-08" x2="16.5" y2="308" stroke="#E4E4E4"/>
<line x1="22.5" y1="2.18557e-08" x2="22.5" y2="308" stroke="#E4E4E4"/>
<line x1="28.5" y1="2.18557e-08" x2="28.5" y2="308" stroke="#E4E4E4"/>
<line x1="34.5" y1="2.18557e-08" x2="34.5" y2="308" stroke="#E4E4E4"/>
<line x1="40.5001" y1="2.18557e-08" x2="40.5" y2="308" stroke="#E4E4E4"/>
<line x1="46.5001" y1="2.18557e-08" x2="46.5001" y2="308" stroke="#E4E4E4"/>
<line x1="52.5001" y1="2.18557e-08" x2="52.5001" y2="308" stroke="#E4E4E4"/>
<line x1="58.5001" y1="2.18557e-08" x2="58.5001" y2="308" stroke="#E4E4E4"/>
<line x1="64.5001" y1="2.18557e-08" x2="64.5001" y2="308" stroke="#E4E4E4"/>
<line x1="70.5001" y1="2.18557e-08" x2="70.5001" y2="308" stroke="#E4E4E4"/>
<line x1="76.5002" y1="2.18557e-08" x2="76.5001" y2="308" stroke="#E4E4E4"/>
<line x1="82.5002" y1="2.18557e-08" x2="82.5002" y2="308" stroke="#E4E4E4"/>
<line x1="88.5002" y1="2.18557e-08" x2="88.5002" y2="308" stroke="#E4E4E4"/>
<line x1="94.5002" y1="2.18557e-08" x2="94.5002" y2="308" stroke="#E4E4E4"/>
<line x1="100.5" y1="2.18557e-08" x2="100.5" y2="308" stroke="#E4E4E4"/>
<line x1="106.5" y1="2.18557e-08" x2="106.5" y2="308" stroke="#E4E4E4"/>
<line x1="112.5" y1="2.18557e-08" x2="112.5" y2="308" stroke="#E4E4E4"/>
<line x1="118.5" y1="2.18557e-08" x2="118.5" y2="308" stroke="#E4E4E4"/>
<line x1="124.5" y1="2.18557e-08" x2="124.5" y2="308" stroke="#E4E4E4"/>
<line x1="130.5" y1="2.18557e-08" x2="130.5" y2="308" stroke="#E4E4E4"/>
<line x1="136.5" y1="2.18557e-08" x2="136.5" y2="308" stroke="#E4E4E4"/>
<line x1="142.5" y1="2.18557e-08" x2="142.5" y2="308" stroke="#E4E4E4"/>
<line x1="148.5" y1="2.18557e-08" x2="148.5" y2="308" stroke="#E4E4E4"/>
<line x1="154.5" y1="2.18557e-08" x2="154.5" y2="308" stroke="#E4E4E4"/>
<line x1="160.5" y1="2.18557e-08" x2="160.5" y2="308" stroke="#E4E4E4"/>
<line x1="166.5" y1="2.18557e-08" x2="166.5" y2="308" stroke="#E4E4E4"/>
<line x1="172.5" y1="2.18557e-08" x2="172.5" y2="308" stroke="#E4E4E4"/>
<line x1="178.5" y1="2.18557e-08" x2="178.5" y2="308" stroke="#E4E4E4"/>
<line x1="184.5" y1="2.18557e-08" x2="184.5" y2="308" stroke="#E4E4E4"/>
<line x1="190.5" y1="2.18557e-08" x2="190.5" y2="308" stroke="#E4E4E4"/>
<line x1="196.5" y1="2.18557e-08" x2="196.5" y2="308" stroke="#E4E4E4"/>
<line x1="202.5" y1="2.18557e-08" x2="202.5" y2="308" stroke="#E4E4E4"/>
<line x1="208.5" y1="2.18557e-08" x2="208.5" y2="308" stroke="#E4E4E4"/>
<line x1="214.501" y1="2.18557e-08" x2="214.5" y2="308" stroke="#E4E4E4"/>
<line x1="220.501" y1="2.18557e-08" x2="220.501" y2="308" stroke="#E4E4E4"/>
<line x1="226.501" y1="2.18557e-08" x2="226.501" y2="308" stroke="#E4E4E4"/>
<line x1="232.501" y1="2.18557e-08" x2="232.501" y2="308" stroke="#E4E4E4"/>
<line x1="238.501" y1="2.18557e-08" x2="238.501" y2="308" stroke="#E4E4E4"/>
<line x1="244.501" y1="2.18557e-08" x2="244.501" y2="308" stroke="#E4E4E4"/>
<line x1="250.501" y1="2.18557e-08" x2="250.501" y2="308" stroke="#E4E4E4"/>
<line x1="256.501" y1="2.18557e-08" x2="256.501" y2="308" stroke="#E4E4E4"/>
<line x1="262.501" y1="2.18557e-08" x2="262.501" y2="308" stroke="#E4E4E4"/>
<line x1="268.501" y1="2.18557e-08" x2="268.501" y2="308" stroke="#E4E4E4"/>
<line x1="274.501" y1="2.18557e-08" x2="274.501" y2="308" stroke="#E4E4E4"/>
<line x1="280.501" y1="2.18557e-08" x2="280.501" y2="308" stroke="#E4E4E4"/>
<line x1="286.501" y1="2.18557e-08" x2="286.501" y2="308" stroke="#E4E4E4"/>
<line x1="2.78181e-08" y1="288.501" x2="308" y2="288.501" stroke="#E4E4E4"/>
<line x1="2.78181e-08" y1="282.501" x2="308" y2="282.501" stroke="#E4E4E4"/>
<line x1="2.78181e-08" y1="276.501" x2="308" y2="276.501" stroke="#E4E4E4"/>
<line x1="2.78181e-08" y1="270.501" x2="308" y2="270.501" stroke="#E4E4E4"/>
<line x1="2.78181e-08" y1="264.501" x2="308" y2="264.501" stroke="#E4E4E4"/>
<line x1="2.78181e-08" y1="258.501" x2="308" y2="258.501" stroke="#E4E4E4"/>
<line x1="2.78181e-08" y1="252.501" x2="308" y2="252.501" stroke="#E4E4E4"/>
<line x1="2.78181e-08" y1="246.501" x2="308" y2="246.501" stroke="#E4E4E4"/>
<line x1="2.78181e-08" y1="240.501" x2="308" y2="240.501" stroke="#E4E4E4"/>
<line x1="2.78181e-08" y1="234.501" x2="308" y2="234.501" stroke="#E4E4E4"/>
<line x1="2.78181e-08" y1="228.501" x2="308" y2="228.501" stroke="#E4E4E4"/>
<line x1="2.78181e-08" y1="222.501" x2="308" y2="222.501" stroke="#E4E4E4"/>
<line x1="2.78181e-08" y1="216.501" x2="308" y2="216.501" stroke="#E4E4E4"/>
<line x1="2.78181e-08" y1="210.5" x2="308" y2="210.501" stroke="#E4E4E4"/>
<line x1="2.78181e-08" y1="204.5" x2="308" y2="204.5" stroke="#E4E4E4"/>
<line x1="2.78181e-08" y1="198.5" x2="308" y2="198.5" stroke="#E4E4E4"/>
<line x1="2.78181e-08" y1="192.5" x2="308" y2="192.5" stroke="#E4E4E4"/>
<line x1="2.78181e-08" y1="186.5" x2="308" y2="186.5" stroke="#E4E4E4"/>
<line x1="2.78181e-08" y1="180.5" x2="308" y2="180.5" stroke="#E4E4E4"/>
<line x1="2.78181e-08" y1="174.5" x2="308" y2="174.5" stroke="#E4E4E4"/>
<line x1="2.78181e-08" y1="168.5" x2="308" y2="168.5" stroke="#E4E4E4"/>
<line x1="2.78181e-08" y1="162.5" x2="308" y2="162.5" stroke="#E4E4E4"/>
<line x1="2.78181e-08" y1="156.5" x2="308" y2="156.5" stroke="#E4E4E4"/>
<line x1="2.78181e-08" y1="150.5" x2="308" y2="150.5" stroke="#E4E4E4"/>
<line x1="2.78181e-08" y1="144.5" x2="308" y2="144.5" stroke="#E4E4E4"/>
<line x1="2.78181e-08" y1="138.5" x2="308" y2="138.5" stroke="#E4E4E4"/>
<line x1="2.78181e-08" y1="132.5" x2="308" y2="132.5" stroke="#E4E4E4"/>
<line x1="2.78181e-08" y1="126.5" x2="308" y2="126.5" stroke="#E4E4E4"/>
<line x1="2.78181e-08" y1="120.5" x2="308" y2="120.5" stroke="#E4E4E4"/>
<line x1="2.78181e-08" y1="114.5" x2="308" y2="114.5" stroke="#E4E4E4"/>
<line x1="2.78181e-08" y1="108.5" x2="308" y2="108.5" stroke="#E4E4E4"/>
<line x1="2.78181e-08" y1="102.5" x2="308" y2="102.5" stroke="#E4E4E4"/>
<line x1="2.78181e-08" y1="96.5002" x2="308" y2="96.5002" stroke="#E4E4E4"/>
<line x1="2.78181e-08" y1="90.5002" x2="308" y2="90.5002" stroke="#E4E4E4"/>
<line x1="2.78181e-08" y1="84.5002" x2="308" y2="84.5002" stroke="#E4E4E4"/>
<line x1="2.78181e-08" y1="78.5002" x2="308" y2="78.5002" stroke="#E4E4E4"/>
<line x1="2.78181e-08" y1="72.5001" x2="308" y2="72.5002" stroke="#E4E4E4"/>
<line x1="2.78181e-08" y1="66.5001" x2="308" y2="66.5001" stroke="#E4E4E4"/>
<line x1="2.78181e-08" y1="60.5001" x2="308" y2="60.5001" stroke="#E4E4E4"/>
<line x1="2.78181e-08" y1="54.5001" x2="308" y2="54.5001" stroke="#E4E4E4"/>
<line x1="2.78181e-08" y1="48.5001" x2="308" y2="48.5001" stroke="#E4E4E4"/>
<line x1="2.78181e-08" y1="42.5001" x2="308" y2="42.5001" stroke="#E4E4E4"/>
<line x1="2.78181e-08" y1="36.5" x2="308" y2="36.5001" stroke="#E4E4E4"/>
<line x1="2.78181e-08" y1="30.5" x2="308" y2="30.5" stroke="#E4E4E4"/>
<line x1="2.78181e-08" y1="24.5" x2="308" y2="24.5" stroke="#E4E4E4"/>
<line x1="2.78181e-08" y1="18.5" x2="308" y2="18.5" stroke="#E4E4E4"/>
</svg>
