<svg xmlns="http://www.w3.org/2000/svg" width="70" height="72" viewBox="0 0 70 72" fill="none">
<path fill-rule="evenodd" clip-rule="evenodd" d="M29.5567 61.4599C29.4191 60.7166 28.7368 60.1999 27.9798 60.2522C19.4303 60.8423 11.9743 60.0941 6.99387 59.065C6.31878 58.9255 5.84809 58.3248 5.85371 57.638L5.97303 43.0555C5.9791 42.3128 5.42743 41.6843 4.69024 41.5731C3.84411 41.4454 3.00114 41.3002 2.16186 41.1374C1.36426 40.9827 0.861751 40.2003 1.03371 39.4092L5.66406 18.1074C5.83685 17.3125 6.624 16.8116 7.42812 16.9526C20.1745 19.1875 35.9674 14.8073 48.3257 3.40469C48.8601 2.91165 49.6745 2.86034 50.2545 3.29913L67.8838 16.6349C68.4649 17.0744 68.6379 17.8721 68.271 18.5004C66.258 21.9474 63.194 26.2565 59.1115 30.7924C58.5633 31.4015 58.6038 32.3397 59.2128 32.8885L69.5162 42.1715C70.0396 42.643 70.1571 43.4176 69.7762 44.0094C67.0853 48.1894 62.6383 53.6485 56.8304 58.5985C50.8349 63.7084 42.6777 68.8789 32.8083 70.9688C32.0147 71.1369 31.2493 70.6074 31.1022 69.8126L29.5567 61.4599Z" fill="#E91E63"/>
<g filter="url(#filter0_dd_1147_20868)">
<path d="M35.9999 22.1113C39.1309 22.1113 42.1337 23.3551 44.3477 25.5691C46.5617 27.7831 47.8054 30.7859 47.8054 33.9169C47.8054 42.9447 40.1666 50.5835 35.9999 50.5835C31.8332 50.5835 24.1943 42.9447 24.1943 33.9169C24.1943 30.7859 25.4381 27.7831 27.6521 25.5691C29.8661 23.3551 32.8689 22.1113 35.9999 22.1113V22.1113ZM43.6388 36.0002C42.7624 36.0002 41.8957 36.1845 41.0951 36.5412C40.2946 36.8978 39.578 37.4189 38.9918 38.0705C38.4057 38.7221 37.9632 39.4897 37.693 40.3234C37.4228 41.1572 37.331 42.0384 37.4235 42.9099C38.3505 43.0084 39.2877 42.8982 40.1666 42.5875C41.0455 42.2768 41.8437 41.7734 42.5029 41.1143C43.162 40.4551 43.6654 39.6569 43.9761 38.778C44.2868 37.8991 44.3969 36.9619 44.2985 36.0349C44.0794 36.0119 43.8591 36.0003 43.6388 36.0002V36.0002ZM28.361 36.0002C28.1388 36.0002 27.9179 36.0113 27.7013 36.0349C27.6029 36.9619 27.713 37.8991 28.0237 38.778C28.3344 39.6569 28.8378 40.4551 29.4969 41.1143C30.1561 41.7734 30.9543 42.2768 31.8332 42.5875C32.7121 42.8982 33.6493 43.0084 34.5763 42.9099C34.6688 42.0384 34.577 41.1572 34.3068 40.3234C34.0366 39.4897 33.5941 38.7221 33.0079 38.0705C32.4218 37.4189 31.7052 36.8978 30.9046 36.5412C30.1041 36.1845 29.2374 36.0002 28.361 36.0002V36.0002Z" fill="url(#paint0_linear_1147_20868)"/>
</g>
<defs>
<filter id="filter0_dd_1147_20868" x="5.74922" y="14.4363" width="60.5016" height="60.5016" filterUnits="userSpaceOnUse" color-interpolation-filters="sRGB">
<feFlood flood-opacity="0" result="BackgroundImageFix"/>
<feColorMatrix in="SourceAlpha" type="matrix" values="0 0 0 0 0 0 0 0 0 0 0 0 0 0 0 0 0 0 127 0" result="hardAlpha"/>
<feOffset dy="3.43489"/>
<feGaussianBlur stdDeviation="2.02659"/>
<feColorMatrix type="matrix" values="0 0 0 0 0.254902 0 0 0 0 0 0 0 0 0 0.639216 0 0 0 0.0899053 0"/>
<feBlend mode="normal" in2="BackgroundImageFix" result="effect1_dropShadow_1147_20868"/>
<feColorMatrix in="SourceAlpha" type="matrix" values="0 0 0 0 0 0 0 0 0 0 0 0 0 0 0 0 0 0 127 0" result="hardAlpha"/>
<feOffset dy="8.6871"/>
<feGaussianBlur stdDeviation="5.12539"/>
<feColorMatrix type="matrix" values="0 0 0 0 0.254902 0 0 0 0 0 0 0 0 0 0.639216 0 0 0 0.128676 0"/>
<feBlend mode="normal" in2="effect1_dropShadow_1147_20868" result="effect2_dropShadow_1147_20868"/>
<feBlend mode="normal" in="SourceGraphic" in2="effect2_dropShadow_1147_20868" result="shape"/>
</filter>
<linearGradient id="paint0_linear_1147_20868" x1="35.9999" y1="22.1113" x2="35.9999" y2="50.5835" gradientUnits="userSpaceOnUse">
<stop stop-color="white"/>
<stop offset="1" stop-color="#EEE3FF"/>
</linearGradient>
</defs>
</svg>