<svg width="100%" height="100%" id="svg" viewBox="0 0 1440 690" xmlns="http://www.w3.org/2000/svg" class="transition duration-300 ease-in-out delay-150"><path d="M 0,700 L 0,131 C 133.03571428571428,150.66071428571428 266.07142857142856,170.32142857142858 388,167 C 509.92857142857144,163.67857142857142 620.7499999999999,137.375 738,151 C 855.2500000000001,164.625 978.9285714285713,218.17857142857144 1097,259 C 1215.0714285714287,299.82142857142856 1327.5357142857142,327.9107142857143 1440,356 L 1440,700 L 0,700 Z" stroke="none" stroke-width="0" fill="#f9ad59" fill-opacity="0.4" class="transition-all duration-300 ease-in-out delay-150 path-0" transform="rotate(-180 720 350)"></path><path d="M 0,700 L 0,306 C 126.14285714285711,278.8392857142857 252.28571428571422,251.67857142857144 373,275 C 493.7142857142858,298.32142857142856 609.0000000000002,372.12499999999994 730,408 C 850.9999999999998,443.87500000000006 977.7142857142856,441.8214285714286 1097,456 C 1216.2857142857144,470.1785714285714 1328.1428571428573,500.58928571428567 1440,531 L 1440,700 L 0,700 Z" stroke="none" stroke-width="0" fill="#f9ad59" fill-opacity="0.53" class="transition-all duration-300 ease-in-out delay-150 path-1" transform="rotate(-180 720 350)"></path><path d="M 0,700 L 0,481 C 89.71428571428572,489.05357142857144 179.42857142857144,497.1071428571429 309,509 C 438.57142857142856,520.8928571428571 608,536.625 738,558 C 868,579.375 958.5714285714287,606.3928571428572 1069,632 C 1179.4285714285713,657.6071428571428 1309.7142857142858,681.8035714285713 1440,706 L 1440,700 L 0,700 Z" stroke="none" stroke-width="0" fill="#f9ad59" fill-opacity="1" class="transition-all duration-300 ease-in-out delay-150 path-2" transform="rotate(-180 720 350)"></path></svg>