<!-- Wave -->
<!-- <svg xmlns="http://www.w3.org/2000/svg" viewBox="0 0 1440 320"><path fill="#0099ff" fill-opacity="1" d="M0,160L30,176C60,192,120,224,180,240C240,256,300,256,360,218.7C420,181,480,107,540,90.7C600,75,660,117,720,154.7C780,192,840,224,900,213.3C960,203,1020,149,1080,112C1140,75,1200,53,1260,69.3C1320,85,1380,139,1410,165.3L1440,192L1440,0L1410,0C1380,0,1320,0,1260,0C1200,0,1140,0,1080,0C1020,0,960,0,900,0C840,0,780,0,720,0C660,0,600,0,540,0C480,0,420,0,360,0C300,0,240,0,180,0C120,0,60,0,30,0L0,0Z"></path></svg> -->

<!-- Edge -->
<svg xmlns="http://www.w3.org/2000/svg" viewBox="0 0 1440 320"><path fill="#0099ff" fill-opacity="1" d="M0,32L1440,288L1440,0L0,0Z"></path></svg>