<!-- <svg width="100%" height="100%" id="svg" viewBox="0 0 1440 390" xmlns="http://www.w3.org/2000/svg" class="transition duration-300 ease-in-out delay-150"><defs><linearGradient id="gradient" x1="0%" y1="50%" x2="100%" y2="50%"><stop offset="5%" stop-color="#F78DA7"></stop><stop offset="95%" stop-color="#8ED1FC"></stop></linearGradient></defs><path d="M 0,400 L 0,75 C 99.01435406698562,85.5933014354067 198.02870813397124,96.1866028708134 285,100 C 371.97129186602876,103.8133971291866 446.8995215311005,100.8468899521531 532,116 C 617.1004784688995,131.1531100478469 712.3732057416266,164.42583732057417 828,205 C 943.6267942583734,245.57416267942583 1079.6076555023924,293.4497607655502 1185,323 C 1290.3923444976076,352.5502392344498 1365.1961722488038,363.7751196172249 1440,375 L 1440,400 L 0,400 Z" stroke="none" stroke-width="0" fill="url(#gradient)" fill-opacity="0.4" class="transition-all duration-300 ease-in-out delay-150 path-0" transform="rotate(-180 720 200)"></path><defs><linearGradient id="gradient" x1="0%" y1="50%" x2="100%" y2="50%"><stop offset="5%" stop-color="#F78DA7"></stop><stop offset="95%" stop-color="#8ED1FC"></stop></linearGradient></defs><path d="M 0,400 L 0,175 C 122.65071770334927,159.08612440191388 245.30143540669854,143.17224880382778 336,154 C 426.69856459330146,164.82775119617222 485.444976076555,202.39712918660285 560,239 C 634.555023923445,275.60287081339715 724.9186602870813,311.2392344497608 829,329 C 933.0813397129187,346.7607655502392 1050.8803827751196,346.6459330143541 1155,368 C 1259.1196172248804,389.3540669856459 1349.55980861244,432.17703349282294 1440,475 L 1440,400 L 0,400 Z" stroke="none" stroke-width="0" fill="url(#gradient)" fill-opacity="0.53" class="transition-all duration-300 ease-in-out delay-150 path-1" transform="rotate(-180 720 200)"></path><defs><linearGradient id="gradient" x1="0%" y1="50%" x2="100%" y2="50%"><stop offset="5%" stop-color="#F78DA7"></stop><stop offset="95%" stop-color="#8ED1FC"></stop></linearGradient></defs><path d="M 0,400 L 0,275 C 73.25358851674642,265.555023923445 146.50717703349284,256.1100478468899 259,266 C 371.49282296650716,275.8899521531101 523.224880382775,305.11483253588517 614,342 C 704.775119617225,378.88516746411483 734.5933014354067,423.4306220095694 814,442 C 893.4066985645933,460.5693779904306 1022.401913875598,453.1626794258373 1135,471 C 1247.598086124402,488.8373205741627 1343.799043062201,531.9186602870814 1440,575 L 1440,400 L 0,400 Z" stroke="none" stroke-width="0" fill="url(#gradient)" fill-opacity="1" class="transition-all duration-300 ease-in-out delay-150 path-2" transform="rotate(-180 720 200)"></path></svg> -->

<svg width="100%" height="100%" id="svg" viewBox="0 0 1440 590" xmlns="http://www.w3.org/2000/svg" class="transition duration-300 ease-in-out delay-150"><path d="M 0,600 L 0,112 C 69.80350395053246,132.56200618344212 139.60700790106492,153.12401236688422 197,152 C 254.39299209893508,150.87598763311578 299.3754723462728,128.06595671590523 373,148 C 446.6245276537272,167.93404328409477 548.891102713844,230.612160769495 623,274 C 697.108897286156,317.387839230505 743.0601167983511,341.4854002061148 806,361 C 868.9398832016489,380.5145997938852 948.8684300927519,395.44623840604606 1015,412 C 1081.1315699072481,428.55376159395394 1133.4661628306424,446.72964616970114 1202,472 C 1270.5338371693576,497.27035383029886 1355.266918584679,529.6351769151495 1440,562 L 1440,600 L 0,600 Z" stroke="none" stroke-width="0" fill="#2211ff" fill-opacity="0.4" class="transition-all duration-300 ease-in-out delay-150 path-0" transform="rotate(-180 720 300)"></path><path d="M 0,600 L 0,262 C 54.67262109240812,257.77945723119205 109.34524218481624,253.55891446238405 168,271 C 226.65475781518376,288.44108553761595 289.29165235314315,327.5437993816558 373,344 C 456.70834764685685,360.4562006183442 561.4881484026108,354.2658880109928 640,392 C 718.5118515973892,429.7341119890072 770.7557540364136,511.3926485743732 824,534 C 877.2442459635864,556.6073514256268 931.4888354517348,520.1635176915149 995,536 C 1058.5111645482652,551.8364823084851 1131.288904156647,619.9532806595672 1207,658 C 1282.711095843353,696.0467193404328 1361.3555479216766,704.0233596702165 1440,712 L 1440,600 L 0,600 Z" stroke="none" stroke-width="0" fill="#2211ff" fill-opacity="0.53" class="transition-all duration-300 ease-in-out delay-150 path-1" transform="rotate(-180 720 300)"></path><path d="M 0,600 L 0,412 C 55.857780831329436,392.6939196152525 111.71556166265887,373.387839230505 183,394 C 254.28443833734113,414.612160769495 340.995534180694,475.14256269323255 407,515 C 473.004465819306,554.8574373067675 518.3023016145654,574.0419099965648 592,588 C 665.6976983854346,601.9580900034352 767.7952593610444,610.6897973205084 839,627 C 910.2047406389556,643.3102026794916 950.5166609412572,667.1989007214016 1016,695 C 1081.4833390587428,722.8010992785984 1172.1380968739265,754.5145997938853 1247,783 C 1321.8619031260735,811.4854002061147 1380.9309515630366,836.7427001030574 1440,862 L 1440,600 L 0,600 Z" stroke="none" stroke-width="0" fill="#2211ff" fill-opacity="1" class="transition-all duration-300 ease-in-out delay-150 path-2" transform="rotate(-180 720 300)"></path></svg>